<svg width="1440" height="1024" viewBox="0 0 1440 1024" fill="none" xmlns="http://www.w3.org/2000/svg">
<g clip-path="url(#clip0)">
<rect width="1440" height="1024" fill="white"/>
<path d="M3 158L231.5 446.5L3 679.5" stroke="#0091E2" stroke-opacity="0.53" stroke-width="2"/>
<path d="M1263.12 1042.73L1219.42 677.305L1536.08 598.37" stroke="#0091E2" stroke-opacity="0.53" stroke-width="2"/>
<path d="M1376.73 1024.97L1285.94 633.233L1628.36 526.885" stroke="#0091E2" stroke-opacity="0.53" stroke-width="2"/>
<path d="M1116.67 1058.75L1254.77 643.358L1636.64 702.931" stroke="#0091E2" stroke-opacity="0.53" stroke-width="2"/>
<path d="M59 0L269.088 439.492L-148.312 587.152" stroke="#0091E2" stroke-opacity="0.53" stroke-width="2"/>
<path d="M-197.027 255.712L283.726 472.562L2.27743e-05 865" stroke="#0091E2" stroke-opacity="0.53" stroke-width="2"/>
<g filter="url(#filter0_d)">
<path d="M284.95 70.5H274.85V63.6H302.85V70.5H292.75V99H284.95V70.5ZM323.295 94.8C322.095 96.3333 320.578 97.5167 318.745 98.35C316.911 99.1833 315.011 99.6 313.045 99.6C311.178 99.6 309.411 99.3 307.745 98.7C306.111 98.1 304.678 97.25 303.445 96.15C302.245 95.0167 301.295 93.6667 300.595 92.1C299.895 90.5333 299.545 88.7833 299.545 86.85C299.545 84.9167 299.895 83.1667 300.595 81.6C301.295 80.0333 302.245 78.7 303.445 77.6C304.678 76.4667 306.111 75.6 307.745 75C309.411 74.4 311.178 74.1 313.045 74.1C314.778 74.1 316.345 74.4 317.745 75C319.178 75.6 320.378 76.4667 321.345 77.6C322.345 78.7 323.111 80.0333 323.645 81.6C324.178 83.1667 324.445 84.9167 324.445 86.85V89.2H307.045C307.345 90.6333 307.995 91.7833 308.995 92.65C309.995 93.4833 311.228 93.9 312.695 93.9C313.928 93.9 314.961 93.6333 315.795 93.1C316.661 92.5333 317.411 91.8167 318.045 90.95L323.295 94.8ZM316.945 84.1C316.978 82.8333 316.561 81.75 315.695 80.85C314.828 79.95 313.711 79.5 312.345 79.5C311.511 79.5 310.778 79.6333 310.145 79.9C309.511 80.1667 308.961 80.5167 308.495 80.95C308.061 81.35 307.711 81.8333 307.445 82.4C307.211 82.9333 307.078 83.5 307.045 84.1H316.945ZM342.755 81.85C341.655 80.4833 340.205 79.8 338.405 79.8C337.772 79.8 337.155 79.95 336.555 80.25C335.955 80.55 335.655 81.0667 335.655 81.8C335.655 82.4 335.955 82.85 336.555 83.15C337.189 83.4167 337.972 83.6667 338.905 83.9C339.872 84.1 340.889 84.3333 341.955 84.6C343.055 84.8333 344.072 85.2167 345.005 85.75C345.972 86.2833 346.755 87.0167 347.355 87.95C347.989 88.85 348.305 90.0667 348.305 91.6C348.305 93.1667 347.955 94.4667 347.255 95.5C346.589 96.5 345.722 97.3167 344.655 97.95C343.589 98.55 342.389 98.9667 341.055 99.2C339.722 99.4667 338.405 99.6 337.105 99.6C335.405 99.6 333.689 99.3667 331.955 98.9C330.222 98.4 328.755 97.5333 327.555 96.3L332.105 91.25C332.805 92.1167 333.572 92.7833 334.405 93.25C335.272 93.6833 336.272 93.9 337.405 93.9C338.272 93.9 339.055 93.7833 339.755 93.55C340.455 93.2833 340.805 92.8167 340.805 92.15C340.805 91.5167 340.489 91.05 339.855 90.75C339.255 90.4167 338.472 90.15 337.505 89.95C336.572 89.7167 335.555 89.4833 334.455 89.25C333.389 88.9833 332.372 88.6 331.405 88.1C330.472 87.6 329.689 86.9 329.055 86C328.455 85.0667 328.155 83.8333 328.155 82.3C328.155 80.8667 328.439 79.6333 329.005 78.6C329.605 77.5667 330.372 76.7167 331.305 76.05C332.272 75.3833 333.372 74.9 334.605 74.6C335.839 74.2667 337.089 74.1 338.355 74.1C339.955 74.1 341.572 74.3333 343.205 74.8C344.839 75.2667 346.222 76.1 347.355 77.3L342.755 81.85ZM365.9 81.85C364.8 80.4833 363.35 79.8 361.55 79.8C360.917 79.8 360.3 79.95 359.7 80.25C359.1 80.55 358.8 81.0667 358.8 81.8C358.8 82.4 359.1 82.85 359.7 83.15C360.333 83.4167 361.117 83.6667 362.05 83.9C363.017 84.1 364.033 84.3333 365.1 84.6C366.2 84.8333 367.217 85.2167 368.15 85.75C369.117 86.2833 369.9 87.0167 370.5 87.95C371.133 88.85 371.45 90.0667 371.45 91.6C371.45 93.1667 371.1 94.4667 370.4 95.5C369.733 96.5 368.867 97.3167 367.8 97.95C366.733 98.55 365.533 98.9667 364.2 99.2C362.867 99.4667 361.55 99.6 360.25 99.6C358.55 99.6 356.833 99.3667 355.1 98.9C353.367 98.4 351.9 97.5333 350.7 96.3L355.25 91.25C355.95 92.1167 356.717 92.7833 357.55 93.25C358.417 93.6833 359.417 93.9 360.55 93.9C361.417 93.9 362.2 93.7833 362.9 93.55C363.6 93.2833 363.95 92.8167 363.95 92.15C363.95 91.5167 363.633 91.05 363 90.75C362.4 90.4167 361.617 90.15 360.65 89.95C359.717 89.7167 358.7 89.4833 357.6 89.25C356.533 88.9833 355.517 88.6 354.55 88.1C353.617 87.6 352.833 86.9 352.2 86C351.6 85.0667 351.3 83.8333 351.3 82.3C351.3 80.8667 351.583 79.6333 352.15 78.6C352.75 77.5667 353.517 76.7167 354.45 76.05C355.417 75.3833 356.517 74.9 357.75 74.6C358.983 74.2667 360.233 74.1 361.5 74.1C363.1 74.1 364.717 74.3333 366.35 74.8C367.983 75.2667 369.367 76.1 370.5 77.3L365.9 81.85ZM406.095 85.35C406.095 87.45 405.778 89.3833 405.145 91.15C404.511 92.9167 403.561 94.45 402.295 95.75C401.061 97.05 399.511 98.0667 397.645 98.8C395.778 99.5333 393.628 99.9 391.195 99.9C388.728 99.9 386.561 99.5333 384.695 98.8C382.828 98.0667 381.261 97.05 379.995 95.75C378.761 94.45 377.828 92.9167 377.195 91.15C376.561 89.3833 376.245 87.45 376.245 85.35V63.6H384.045V85.05C384.045 86.15 384.211 87.1667 384.545 88.1C384.911 89.0333 385.411 89.85 386.045 90.55C386.678 91.2167 387.428 91.75 388.295 92.15C389.195 92.5167 390.161 92.7 391.195 92.7C392.228 92.7 393.178 92.5167 394.045 92.15C394.911 91.75 395.661 91.2167 396.295 90.55C396.928 89.85 397.411 89.0333 397.745 88.1C398.111 87.1667 398.295 86.15 398.295 85.05V63.6H406.095V85.35ZM413.205 63.6H421.005V99H413.205V63.6Z" fill="#259D96"/>
</g>
<path fill-rule="evenodd" clip-rule="evenodd" d="M225 98C233.284 98 240 91.2843 240 83C240 74.7157 233.284 68 225 68C216.716 68 210 74.7157 210 83C210 91.2843 216.716 98 225 98ZM225 108C238.807 108 250 96.8071 250 83C250 69.1929 238.807 58 225 58C211.193 58 200 69.1929 200 83C200 96.8071 211.193 108 225 108Z" fill="#25479D" fill-opacity="0.15"/>
<path d="M215 103C226.046 103 235 94.0457 235 83C235 71.9543 226.046 63 215 63C203.954 63 195 71.9543 195 83C195 94.0457 203.954 103 215 103Z" stroke="#259D96" stroke-opacity="0.25" stroke-width="10"/>
</g>
<defs>
<filter id="filter0_d" x="270.85" y="63.6" width="154.155" height="44.3" filterUnits="userSpaceOnUse" color-interpolation-filters="sRGB">
<feFlood flood-opacity="0" result="BackgroundImageFix"/>
<feColorMatrix in="SourceAlpha" type="matrix" values="0 0 0 0 0 0 0 0 0 0 0 0 0 0 0 0 0 0 127 0"/>
<feOffset dy="4"/>
<feGaussianBlur stdDeviation="2"/>
<feColorMatrix type="matrix" values="0 0 0 0 0 0 0 0 0 0 0 0 0 0 0 0 0 0 0.25 0"/>
<feBlend mode="normal" in2="BackgroundImageFix" result="effect1_dropShadow"/>
<feBlend mode="normal" in="SourceGraphic" in2="effect1_dropShadow" result="shape"/>
</filter>
<clipPath id="clip0">
<rect width="1440" height="1024" fill="white"/>
</clipPath>
</defs>
</svg>
