<svg width="371" height="68" viewBox="0 0 371 68" fill="none" xmlns="http://www.w3.org/2000/svg">
<g filter="url(#filter0_d)">
<path d="M120.95 21.5H110.85V14.6H138.85V21.5H128.75V50H120.95V21.5ZM159.295 45.8C158.095 47.3333 156.578 48.5167 154.745 49.35C152.911 50.1833 151.011 50.6 149.045 50.6C147.178 50.6 145.411 50.3 143.745 49.7C142.111 49.1 140.678 48.25 139.445 47.15C138.245 46.0167 137.295 44.6667 136.595 43.1C135.895 41.5333 135.545 39.7833 135.545 37.85C135.545 35.9167 135.895 34.1667 136.595 32.6C137.295 31.0333 138.245 29.7 139.445 28.6C140.678 27.4667 142.111 26.6 143.745 26C145.411 25.4 147.178 25.1 149.045 25.1C150.778 25.1 152.345 25.4 153.745 26C155.178 26.6 156.378 27.4667 157.345 28.6C158.345 29.7 159.111 31.0333 159.645 32.6C160.178 34.1667 160.445 35.9167 160.445 37.85V40.2H143.045C143.345 41.6333 143.995 42.7833 144.995 43.65C145.995 44.4833 147.228 44.9 148.695 44.9C149.928 44.9 150.961 44.6333 151.795 44.1C152.661 43.5333 153.411 42.8167 154.045 41.95L159.295 45.8ZM152.945 35.1C152.978 33.8333 152.561 32.75 151.695 31.85C150.828 30.95 149.711 30.5 148.345 30.5C147.511 30.5 146.778 30.6333 146.145 30.9C145.511 31.1667 144.961 31.5167 144.495 31.95C144.061 32.35 143.711 32.8333 143.445 33.4C143.211 33.9333 143.078 34.5 143.045 35.1H152.945ZM178.755 32.85C177.655 31.4833 176.205 30.8 174.405 30.8C173.772 30.8 173.155 30.95 172.555 31.25C171.955 31.55 171.655 32.0667 171.655 32.8C171.655 33.4 171.955 33.85 172.555 34.15C173.189 34.4167 173.972 34.6667 174.905 34.9C175.872 35.1 176.889 35.3333 177.955 35.6C179.055 35.8333 180.072 36.2167 181.005 36.75C181.972 37.2833 182.755 38.0167 183.355 38.95C183.989 39.85 184.305 41.0667 184.305 42.6C184.305 44.1667 183.955 45.4667 183.255 46.5C182.589 47.5 181.722 48.3167 180.655 48.95C179.589 49.55 178.389 49.9667 177.055 50.2C175.722 50.4667 174.405 50.6 173.105 50.6C171.405 50.6 169.689 50.3667 167.955 49.9C166.222 49.4 164.755 48.5333 163.555 47.3L168.105 42.25C168.805 43.1167 169.572 43.7833 170.405 44.25C171.272 44.6833 172.272 44.9 173.405 44.9C174.272 44.9 175.055 44.7833 175.755 44.55C176.455 44.2833 176.805 43.8167 176.805 43.15C176.805 42.5167 176.489 42.05 175.855 41.75C175.255 41.4167 174.472 41.15 173.505 40.95C172.572 40.7167 171.555 40.4833 170.455 40.25C169.389 39.9833 168.372 39.6 167.405 39.1C166.472 38.6 165.689 37.9 165.055 37C164.455 36.0667 164.155 34.8333 164.155 33.3C164.155 31.8667 164.439 30.6333 165.005 29.6C165.605 28.5667 166.372 27.7167 167.305 27.05C168.272 26.3833 169.372 25.9 170.605 25.6C171.839 25.2667 173.089 25.1 174.355 25.1C175.955 25.1 177.572 25.3333 179.205 25.8C180.839 26.2667 182.222 27.1 183.355 28.3L178.755 32.85ZM201.9 32.85C200.8 31.4833 199.35 30.8 197.55 30.8C196.917 30.8 196.3 30.95 195.7 31.25C195.1 31.55 194.8 32.0667 194.8 32.8C194.8 33.4 195.1 33.85 195.7 34.15C196.333 34.4167 197.117 34.6667 198.05 34.9C199.017 35.1 200.033 35.3333 201.1 35.6C202.2 35.8333 203.217 36.2167 204.15 36.75C205.117 37.2833 205.9 38.0167 206.5 38.95C207.133 39.85 207.45 41.0667 207.45 42.6C207.45 44.1667 207.1 45.4667 206.4 46.5C205.733 47.5 204.867 48.3167 203.8 48.95C202.733 49.55 201.533 49.9667 200.2 50.2C198.867 50.4667 197.55 50.6 196.25 50.6C194.55 50.6 192.833 50.3667 191.1 49.9C189.367 49.4 187.9 48.5333 186.7 47.3L191.25 42.25C191.95 43.1167 192.717 43.7833 193.55 44.25C194.417 44.6833 195.417 44.9 196.55 44.9C197.417 44.9 198.2 44.7833 198.9 44.55C199.6 44.2833 199.95 43.8167 199.95 43.15C199.95 42.5167 199.633 42.05 199 41.75C198.4 41.4167 197.617 41.15 196.65 40.95C195.717 40.7167 194.7 40.4833 193.6 40.25C192.533 39.9833 191.517 39.6 190.55 39.1C189.617 38.6 188.833 37.9 188.2 37C187.6 36.0667 187.3 34.8333 187.3 33.3C187.3 31.8667 187.583 30.6333 188.15 29.6C188.75 28.5667 189.517 27.7167 190.45 27.05C191.417 26.3833 192.517 25.9 193.75 25.6C194.983 25.2667 196.233 25.1 197.5 25.1C199.1 25.1 200.717 25.3333 202.35 25.8C203.983 26.2667 205.367 27.1 206.5 28.3L201.9 32.85ZM242.095 36.35C242.095 38.45 241.778 40.3833 241.145 42.15C240.511 43.9167 239.561 45.45 238.295 46.75C237.061 48.05 235.511 49.0667 233.645 49.8C231.778 50.5333 229.628 50.9 227.195 50.9C224.728 50.9 222.561 50.5333 220.695 49.8C218.828 49.0667 217.261 48.05 215.995 46.75C214.761 45.45 213.828 43.9167 213.195 42.15C212.561 40.3833 212.245 38.45 212.245 36.35V14.6H220.045V36.05C220.045 37.15 220.211 38.1667 220.545 39.1C220.911 40.0333 221.411 40.85 222.045 41.55C222.678 42.2167 223.428 42.75 224.295 43.15C225.195 43.5167 226.161 43.7 227.195 43.7C228.228 43.7 229.178 43.5167 230.045 43.15C230.911 42.75 231.661 42.2167 232.295 41.55C232.928 40.85 233.411 40.0333 233.745 39.1C234.111 38.1667 234.295 37.15 234.295 36.05V14.6H242.095V36.35ZM249.205 14.6H257.005V50H249.205V14.6Z" fill="#259D96"/>
</g>
<path fill-rule="evenodd" clip-rule="evenodd" d="M61 49C69.2843 49 76 42.2843 76 34C76 25.7157 69.2843 19 61 19C52.7157 19 46 25.7157 46 34C46 42.2843 52.7157 49 61 49ZM61 59C74.8071 59 86 47.8071 86 34C86 20.1929 74.8071 9 61 9C47.1929 9 36 20.1929 36 34C36 47.8071 47.1929 59 61 59Z" fill="#25479D" fill-opacity="0.15"/>
<circle cx="51" cy="34" r="20" stroke="#259D96" stroke-opacity="0.25" stroke-width="10"/>
<defs>
<filter id="filter0_d" x="106.85" y="14.6" width="154.155" height="44.3" filterUnits="userSpaceOnUse" color-interpolation-filters="sRGB">
<feFlood flood-opacity="0" result="BackgroundImageFix"/>
<feColorMatrix in="SourceAlpha" type="matrix" values="0 0 0 0 0 0 0 0 0 0 0 0 0 0 0 0 0 0 127 0"/>
<feOffset dy="4"/>
<feGaussianBlur stdDeviation="2"/>
<feColorMatrix type="matrix" values="0 0 0 0 0 0 0 0 0 0 0 0 0 0 0 0 0 0 0.25 0"/>
<feBlend mode="normal" in2="BackgroundImageFix" result="effect1_dropShadow"/>
<feBlend mode="normal" in="SourceGraphic" in2="effect1_dropShadow" result="shape"/>
</filter>
</defs>
</svg>
